<svg width="32" height="32" xmlns="http://www.w3.org/2000/svg"><defs><clipPath id="icon-linkedin_svg__a"><path d="M16 0c8.837 0 16 7.163 16 16s-7.163 16-16 16S0 24.837 0 16 7.163 0 16 0Z"/></clipPath><clipPath id="icon-linkedin_svg__b"><path d="M4.087 5.53V17H.229V5.53h3.858ZM2.184 0c1.32 0 2.132.856 2.157 1.981 0 1.102-.837 1.983-2.183 1.983h-.025C.839 3.964 0 3.082 0 1.981 0 .856.864 0 2.184 0Zm7.896 7.155c.512-.78 1.428-1.895 3.477-1.895C16.097 5.26 18 6.9 18 10.423V17h-3.858v-6.137c0-1.541-.558-2.594-1.954-2.594-1.066 0-1.7.71-1.98 1.395-.102.246-.128.587-.128.93V17H6.22l.001-.042v-.05l.001-.16c.004-.878.018-3.898.021-6.596V8.161a98.781 98.781 0 0 0-.022-2.632h3.859v1.626Z"/></clipPath></defs><g clip-path="url(#icon-linkedin_svg__a)"><path d="M0 0h32v32H0V0z"/></g><g clip-path="url(#icon-linkedin_svg__b)" transform="translate(7 7)"><path fill="#F3F3F3" d="M0 0h18v17H0V0z"/></g></svg>