<svg width="32" height="32" xmlns="http://www.w3.org/2000/svg"><defs><clipPath id="icon-twitter_svg__a"><path d="M16 0c8.837 0 16 7.163 16 16s-7.163 16-16 16S0 24.837 0 16 7.163 0 16 0Z"/></clipPath><clipPath id="icon-twitter_svg__b"><path d="M12.462 0c1.062 0 2.022.46 2.696 1.196a7.286 7.286 0 0 0 2.345-.92 3.783 3.783 0 0 1-1.624 2.096A7.242 7.242 0 0 0 18 1.776a7.614 7.614 0 0 1-1.843 1.96c.007.162.01.326.01.49C16.168 9.23 12.455 15 5.662 15 3.575 15 1.634 14.373 0 13.299a7.294 7.294 0 0 0 5.467-1.568c-1.616-.031-2.98-1.126-3.45-2.63a3.6 3.6 0 0 0 1.668-.065C1.995 8.688.723 7.158.723 5.323v-.048a3.609 3.609 0 0 0 1.673.474A3.811 3.811 0 0 1 .753 2.597c0-.694.182-1.345.5-1.904C3.074 2.984 5.796 4.492 8.865 4.65a3.894 3.894 0 0 1-.096-.863C8.77 1.695 10.423 0 12.462 0Z"/></clipPath></defs><g clip-path="url(#icon-twitter_svg__a)"><path d="M0 0h32v32H0V0z"/></g><g clip-path="url(#icon-twitter_svg__b)" transform="translate(7 9)"><path fill="#F3F3F3" d="M0 0h18v15H0V0z"/></g></svg>