<svg width="32" height="32" xmlns="http://www.w3.org/2000/svg"><defs><clipPath id="icon-youtube_svg__a"><path d="M16 0c8.837 0 16 7.163 16 16s-7.163 16-16 16S0 24.837 0 16 7.163 0 16 0Z"/></clipPath><clipPath id="icon-youtube_svg__b"><path d="M10.248 0c.604.003 2.222.017 3.84.08l.51.022c1.353.062 2.631.163 3.227.326.857.23 1.532.906 1.763 1.763.386 1.408.41 4.19.412 4.733v.103l-.001.15c-.006.675-.054 3.293-.41 4.649a2.506 2.506 0 0 1-1.764 1.762c-1.378.363-6.401.406-7.577.411L10.01 14h-.257c-.603-.003-2.217-.017-3.834-.08l-.51-.022c-1.353-.062-2.632-.163-3.234-.326a2.506 2.506 0 0 1-1.763-1.763C.055 10.468.007 7.84 0 7.162V6.84c.006-.674.054-3.292.41-4.648A2.557 2.557 0 0 1 2.176.41C3.553.05 8.576.007 9.752.002Z"/></clipPath><clipPath id="icon-youtube_svg__c"><path d="m0 0 5.206 2.998L0 5.995V0Z"/></clipPath></defs><g clip-path="url(#icon-youtube_svg__a)"><path d="M0 0h32v32H0V0z"/></g><g clip-path="url(#icon-youtube_svg__b)" transform="translate(6 9)"><path fill="#F3F3F3" d="M0 0h20v14H0V0z"/></g><g clip-path="url(#icon-youtube_svg__c)" transform="translate(14.007 13.002)"><path d="M0 0h5.206v5.995H0V0z"/></g></svg>