<svg width="32" height="32" xmlns="http://www.w3.org/2000/svg"><defs><clipPath id="icon-facebook_svg__a"><path d="M16 0c8.837 0 16 7.163 16 16s-7.163 16-16 16S0 24.837 0 16 7.163 0 16 0Z"/></clipPath><clipPath id="icon-facebook_svg__b"><path d="m7.225 0 2.398.004c.208 0 .377.164.377.367v2.748a.372.372 0 0 1-.377.367H8.007c-1.114 0-1.317.423-1.317 1.255v1.731h2.82c.1 0 .197.039.267.108s.11.162.11.26v2.959a.372.372 0 0 1-.378.367H6.69v7.467a.372.372 0 0 1-.377.367H3.166a.372.372 0 0 1-.377-.367v-7.467H.377A.372.372 0 0 1 0 9.799v-2.96c0-.202.169-.367.377-.367H2.79V4.43C2.789 1.739 4.53 0 7.225 0Z"/></clipPath></defs><g clip-path="url(#icon-facebook_svg__a)"><path d="M0 0h32v32H0V0z"/></g><g clip-path="url(#icon-facebook_svg__b)" transform="translate(11 7)"><path fill="#F3F3F3" d="M0 0h10v18H0V0z"/></g></svg>